HIERARCHY
ROOT RootJoint
{
    OFFSET   0.000000   0.000000   0.000000
    CHANNELS 6 Xposition Yposition Zposition Xrotation Yrotation Zrotation
    JOINT lHip
    {
        OFFSET   0.100000  -0.051395   0.000000
        CHANNELS 3 Xrotation Yrotation Zrotation
        JOINT lKnee
        {
            OFFSET   0.000000  -0.410000   0.000000
            CHANNELS 3 Xrotation Yrotation Zrotation
            JOINT lAnkle
            {
                OFFSET   0.000000  -0.390000   0.000000
                CHANNELS 3 Xrotation Yrotation Zrotation
                JOINT lToeJoint
                {
                    OFFSET   0.000000  -0.050000   0.130000
                    CHANNELS 3 Xrotation Yrotation Zrotation
                    End Site
                    {
                        OFFSET   0.010000   0.002000   0.060000
                    }
                }
            }
        }
    }
    JOINT rHip
    {
        OFFSET  -0.100000  -0.051395   0.000000
        CHANNELS 3 Xrotation Yrotation Zrotation
        JOINT rKnee
        {
            OFFSET   0.000000  -0.410000   0.000000
            CHANNELS 3 Xrotation Yrotation Zrotation
            JOINT rAnkle
            {
                OFFSET   0.000000  -0.390000   0.000000
                CHANNELS 3 Xrotation Yrotation Zrotation
                JOINT rToeJoint
                {
                    OFFSET   0.000000  -0.050000   0.130000
                    CHANNELS 3 Xrotation Yrotation Zrotation
                    End Site
                    {
                        OFFSET  -0.010000   0.002000   0.060000
                    }
                }
            }
        }
    }
    JOINT pelvis_lowerback
    {
        OFFSET   0.000000   0.093605   0.000000
        CHANNELS 3 Xrotation Yrotation Zrotation
        JOINT lowerback_torso
        {
            OFFSET   0.000000   0.100000   0.000000
            CHANNELS 3 Xrotation Yrotation Zrotation
            JOINT torso_head
            {
                OFFSET   0.000000   0.282350   0.000000
                CHANNELS 3 Xrotation Yrotation Zrotation
                End Site
                {
                    OFFSET   0.000000   0.192650   0.000000
                }
            }
            JOINT lTorso_Clavicle
            {
                OFFSET   0.001000   0.157500   0.000000
                CHANNELS 3 Xrotation Yrotation Zrotation
                JOINT lShoulder
                {
                    OFFSET   0.117647   0.000000   0.000000
                    CHANNELS 3 Xrotation Yrotation Zrotation
                    JOINT lElbow
                    {
                        OFFSET   0.245000   0.000000   0.000000
                        CHANNELS 3 Xrotation Yrotation Zrotation
                        JOINT lWrist
                        {
                            OFFSET   0.240000   0.000000   0.000000
                            CHANNELS 3 Xrotation Yrotation Zrotation
                            End Site
                            {
                                OFFSET   0.116353  -0.002500   0.000000
                            }
                        }
                    }
                }
            }
            JOINT rTorso_Clavicle
            {
                OFFSET  -0.001000   0.157500   0.000000
                CHANNELS 3 Xrotation Yrotation Zrotation
                JOINT rShoulder
                {
                    OFFSET  -0.117647   0.000000   0.000000
                    CHANNELS 3 Xrotation Yrotation Zrotation
                    JOINT rElbow
                    {
                        OFFSET  -0.245000   0.000000   0.000000
                        CHANNELS 3 Xrotation Yrotation Zrotation
                        JOINT rWrist
                        {
                            OFFSET  -0.240000   0.000000   0.000000
                            CHANNELS 3 Xrotation Yrotation Zrotation
                            End Site
                            {
                                OFFSET  -0.116353  -0.002500   0.000000
                            }
                        }
                    }
                }
            }
        }
    }
}
MOTION
Frames: 5
Frame Time:   0.016667
  2.697406   0.868151   5.035290  -2.547665 -40.149932   3.905173  -6.383891  -0.694173   7.006688  14.086393  -5.201530   1.532131  -3.893366  -1.083475 -16.327669  -0.000001  -0.000003   0.000002 -22.490879  10.888122   1.223460  44.318830  11.005922  -7.127737 -11.167146   8.631424  -0.428516   0.000001  -0.000014   0.000000   1.731711   0.654684  -0.408577   6.956446   2.558763  -1.729247   6.718345  -7.289574   2.584588  -1.086831   0.441247 -19.248406  21.537782 -23.588955 -48.808408  -0.897601 -25.798632   3.599178   4.558555  -2.091684   5.423908   0.004540   3.235428  16.319408  10.260931  38.046640  45.128438   1.717522  42.231205 -11.383061   6.023983  -2.186738  10.205605
  2.703439   0.862943   5.046986  -2.365305 -43.525992   4.514406  -5.508586   1.646498   6.202379  14.871346  -4.763792   1.251072  -7.017635  -0.666234 -15.460612   0.000000   0.000001   0.000001 -24.814961  12.355256   0.909009  48.130202  12.008878  -6.864826 -10.241391   9.538740  -0.765040   0.000002  -0.000012   0.000002   1.861304   0.663450  -0.535413   7.480337   2.575673  -2.249363   5.841480  -7.135573   2.699332  -1.100315   0.513231 -19.567541  22.795907 -24.899867 -48.167895  -0.867635 -24.878449   3.268670   3.773708  -2.411325   5.451808  -0.013072   3.618581  16.374406   8.304569  37.785963  46.167177   2.174339  46.791386 -12.496495   9.824913  -1.482787   9.879904
  2.708431   0.860151   5.058703  -2.204234 -46.754774   5.244152  -4.399538   4.324130   5.026184  14.962185  -4.390168   1.305151  -8.854574  -0.397283 -14.628399   0.000001   0.000002   0.000002 -27.168296  13.343198   0.497186  51.648177  13.209989  -6.740537  -8.074619  10.512061  -1.084226   0.000001  -0.000011   0.000002   2.003710   0.670942  -0.705596   8.057240   2.578906  -2.943672   4.963876  -7.251778   2.956484  -1.126925   0.398216 -19.883061  24.046055 -26.456676 -47.313352  -0.830198 -23.733906   2.919117   3.064140  -2.651912   5.095879  -0.028988   3.914702  16.497711   6.250787  36.971970  47.722858   2.740582  51.182385 -13.255555  12.990109  -0.424550   8.721349
  2.712730   0.858972   5.070436  -2.026531 -49.884962   6.078796  -3.087957   7.206626   3.562431  14.588335  -4.058946   1.587009  -9.832624  -0.215862 -13.827108   0.000000   0.000002   0.000002 -29.539374  14.022049   0.014475  54.980148  14.537144  -6.740291  -5.071555  11.518601  -1.428490  -0.000001  -0.000012   0.000001   2.154669   0.677297  -0.904683   8.669329   2.568320  -3.753973   4.086782  -7.551543   3.303994  -1.163522   0.158656 -20.196293  25.319142 -28.167833 -46.288368  -0.783603 -22.439912   2.557970   2.403115  -2.834002   4.484329  -0.044165   4.152775  16.666575   4.190876  35.758378  49.563508   3.393289  55.461291 -13.803852  15.760396   0.814239   6.980396
  2.715299   0.858981   5.081872  -1.869481 -52.773408   6.673128  -1.464925   9.299444   2.216841  13.697042  -3.461848   1.750086 -10.359162   0.127469 -13.143439   0.000000   0.000000   0.000003 -31.656818  14.068796  -0.385394  57.654604  15.713342  -6.886059  -2.333275  12.137492   0.406914  -0.000002  -0.000009   0.000000   2.278323   0.657640  -1.059244   9.166871   2.456738  -4.380373   3.646015  -7.917709   3.567612  -1.198844  -0.135635 -20.400025  26.483624 -29.789811 -45.344763  -0.739405 -21.103566   2.190940   2.028005  -2.785697   3.586715  -0.051501   4.231097  16.798531   2.748943  34.671111  51.326226   4.064196  58.905689 -14.169826  17.345007   2.338911   4.495737
